<svg class="icon" xmlns="http://www.w3.org/2000/svg">
    <g id="icon-box" stroke="none" stroke-width="1" fill="none">
        <rect x="0" y="0" width="24" height="24"/>
        <path d="M20.4061385,6.73606154 C20.7672665,6.89656288 21,7.25468437 21,7.64987309 L21,16.4115967 C21,16.7747638 20.8031081,17.1093844 20.4856429,17.2857539 L12.4856429,21.7301984 C12.1836204,21.8979887 11.8163796,21.8979887 11.5143571,21.7301984 L3.51435707,17.2857539 C3.19689188,17.1093844 3,16.7747638 3,16.4115967 L3,7.64987309 C3,7.25468437 3.23273352,6.89656288 3.59386153,6.73606154 L11.5938615,3.18050598 C11.8524269,3.06558805 12.1475731,3.06558805 12.4061385,3.18050598 L20.4061385,6.73606154 Z" fill="currentColor" opacity="0.3"/>
        <polygon fill="currentColor" points="14.9671522 4.22441676 7.5999999 8.31727912 7.5999999 12.9056825 9.5999999 13.9056825 9.5999999 9.49408582 17.25507 5.24126912"/>
    </g>
    <g id="icon-analytics" stroke="none" stroke-width="1" fill="none">
        <rect x="0" y="0" width="24" height="24"/>
        <rect fill="currentColor" opacity="0.3" x="13" y="4" width="3" height="16" rx="1.5"/>
        <rect fill="currentColor" x="8" y="9" width="3" height="11" rx="1.5"/>
        <rect fill="currentColor" x="18" y="11" width="3" height="9" rx="1.5"/>
        <rect fill="currentColor" x="3" y="13" width="3" height="7" rx="1.5"/>
    </g>
    <g id="icon-services" stroke="none" stroke-width="1" fill="none">
        <g stroke="none" stroke-width="1" fill="none">
            <rect x="0" y="0" width="24" height="24"/>
            <path d="M5.5,2 L18.5,2 C19.3284271,2 20,2.67157288 20,3.5 L20,6.5 C20,7.32842712 19.3284271,8 18.5,8 L5.5,8 C4.67157288,8 4,7.32842712 4,6.5 L4,3.5 C4,2.67157288 4.67157288,2 5.5,2 Z M11,4 C10.4477153,4 10,4.44771525 10,5 C10,5.55228475 10.4477153,6 11,6 L13,6 C13.5522847,6 14,5.55228475 14,5 C14,4.44771525 13.5522847,4 13,4 L11,4 Z" fill="currentColor" opacity="0.3"/>
            <path d="M5.5,9 L18.5,9 C19.3284271,9 20,9.67157288 20,10.5 L20,13.5 C20,14.3284271 19.3284271,15 18.5,15 L5.5,15 C4.67157288,15 4,14.3284271 4,13.5 L4,10.5 C4,9.67157288 4.67157288,9 5.5,9 Z M11,11 C10.4477153,11 10,11.4477153 10,12 C10,12.5522847 10.4477153,13 11,13 L13,13 C13.5522847,13 14,12.5522847 14,12 C14,11.4477153 13.5522847,11 13,11 L11,11 Z M5.5,16 L18.5,16 C19.3284271,16 20,16.6715729 20,17.5 L20,20.5 C20,21.3284271 19.3284271,22 18.5,22 L5.5,22 C4.67157288,22 4,21.3284271 4,20.5 L4,17.5 C4,16.6715729 4.67157288,16 5.5,16 Z M11,18 C10.4477153,18 10,18.4477153 10,19 C10,19.5522847 10.4477153,20 11,20 L13,20 C13.5522847,20 14,19.5522847 14,19 C14,18.4477153 13.5522847,18 13,18 L11,18 Z" fill="currentColor"/>
        </g>
    </g>
    <g id="icon-settings" stroke="none" stroke-width="1" fill="none">
        <rect x="0" y="0" width="24" height="24"/>
        <path d="M18.6225,9.75 L18.75,9.75 C19.9926407,9.75 21,10.7573593 21,12 C21,13.2426407 19.9926407,14.25 18.75,14.25 L18.6854912,14.249994 C18.4911876,14.250769 18.3158978,14.366855 18.2393549,14.5454486 C18.1556809,14.7351461 18.1942911,14.948087 18.3278301,15.0846699 L18.372535,15.129375 C18.7950334,15.5514036 19.03243,16.1240792 19.03243,16.72125 C19.03243,17.3184208 18.7950334,17.8910964 18.373125,18.312535 C17.9510964,18.7350334 17.3784208,18.97243 16.78125,18.97243 C16.1840792,18.97243 15.6114036,18.7350334 15.1896699,18.3128301 L15.1505513,18.2736469 C15.008087,18.1342911 14.7951461,18.0956809 14.6054486,18.1793549 C14.426855,18.2558978 14.310769,18.4311876 14.31,18.6225 L14.31,18.75 C14.31,19.9926407 13.3026407,21 12.06,21 C10.8173593,21 9.81,19.9926407 9.81,18.75 C9.80552409,18.4999185 9.67898539,18.3229986 9.44717599,18.2361469 C9.26485393,18.1556809 9.05191298,18.1942911 8.91533009,18.3278301 L8.870625,18.372535 C8.44859642,18.7950334 7.87592081,19.03243 7.27875,19.03243 C6.68157919,19.03243 6.10890358,18.7950334 5.68746499,18.373125 C5.26496665,17.9510964 5.02757002,17.3784208 5.02757002,16.78125 C5.02757002,16.1840792 5.26496665,15.6114036 5.68716991,15.1896699 L5.72635306,15.1505513 C5.86570889,15.008087 5.90431906,14.7951461 5.82064513,14.6054486 C5.74410223,14.426855 5.56881236,14.310769 5.3775,14.31 L5.25,14.31 C4.00735931,14.31 3,13.3026407 3,12.06 C3,10.8173593 4.00735931,9.81 5.25,9.81 C5.50008154,9.80552409 5.67700139,9.67898539 5.76385306,9.44717599 C5.84431906,9.26485393 5.80570889,9.05191298 5.67216991,8.91533009 L5.62746499,8.870625 C5.20496665,8.44859642 4.96757002,7.87592081 4.96757002,7.27875 C4.96757002,6.68157919 5.20496665,6.10890358 5.626875,5.68746499 C6.04890358,5.26496665 6.62157919,5.02757002 7.21875,5.02757002 C7.81592081,5.02757002 8.38859642,5.26496665 8.81033009,5.68716991 L8.84944872,5.72635306 C8.99191298,5.86570889 9.20485393,5.90431906 9.38717599,5.82385306 L9.49484664,5.80114977 C9.65041313,5.71688974 9.7492905,5.55401473 9.75,5.3775 L9.75,5.25 C9.75,4.00735931 10.7573593,3 12,3 C13.2426407,3 14.25,4.00735931 14.25,5.25 L14.249994,5.31450877 C14.250769,5.50881236 14.366855,5.68410223 14.552824,5.76385306 C14.7351461,5.84431906 14.948087,5.80570889 15.0846699,5.67216991 L15.129375,5.62746499 C15.5514036,5.20496665 16.1240792,4.96757002 16.72125,4.96757002 C17.3184208,4.96757002 17.8910964,5.20496665 18.312535,5.626875 C18.7350334,6.04890358 18.97243,6.62157919 18.97243,7.21875 C18.97243,7.81592081 18.7350334,8.38859642 18.3128301,8.81033009 L18.2736469,8.84944872 C18.1342911,8.99191298 18.0956809,9.20485393 18.1761469,9.38717599 L18.1988502,9.49484664 C18.2831103,9.65041313 18.4459853,9.7492905 18.6225,9.75 Z" fill="currentColor" fill-rule="nonzero" opacity="0.3"/>
        <path d="M12,15 C13.6568542,15 15,13.6568542 15,12 C15,10.3431458 13.6568542,9 12,9 C10.3431458,9 9,10.3431458 9,12 C9,13.6568542 10.3431458,15 12,15 Z" fill="currentColor"/>
    </g>
    <g id="icon-settings2" stroke="none" stroke-width="1" fill="none">
        <rect x="0" y="0" width="24" height="24"/>
        <path d="M5,8.6862915 L5,5 L8.6862915,5 L11.5857864,2.10050506 L14.4852814,5 L19,5 L19,9.51471863 L21.4852814,12 L19,14.4852814 L19,19 L14.4852814,19 L11.5857864,21.8994949 L8.6862915,19 L5,19 L5,15.3137085 L1.6862915,12 L5,8.6862915 Z M12,15 C13.6568542,15 15,13.6568542 15,12 C15,10.3431458 13.6568542,9 12,9 C10.3431458,9 9,10.3431458 9,12 C9,13.6568542 10.3431458,15 12,15 Z" fill="currentColor"/>
    </g>
    <g id="icon-notification" stroke="none" stroke-width="1" fill="none">
        <path d="M17,12 L18.5,12 C19.3284271,12 20,12.6715729 20,13.5 C20,14.3284271 19.3284271,15 18.5,15 L5.5,15 C4.67157288,15 4,14.3284271 4,13.5 C4,12.6715729 4.67157288,12 5.5,12 L7,12 L7.5582739,6.97553494 C7.80974924,4.71225688 9.72279394,3 12,3 C14.2772061,3 16.1902508,4.71225688 16.4417261,6.97553494 L17,12 Z" fill="currentColor"/>
        <rect fill="currentColor" opacity="0.3" x="10" y="16" width="4" height="4" rx="2"/>
    </g>
    <g id="icon-link" stroke="none" stroke-width="1" fill="none">
        <rect x="0" y="0" width="24" height="24"/>
        <path d="M12.4644661,14.5355339 L9.46446609,14.5355339 C8.91218134,14.5355339 8.46446609,14.9832492 8.46446609,15.5355339 C8.46446609,16.0878187 8.91218134,16.5355339 9.46446609,16.5355339 L12.4644661,16.5355339 L12.4644661,17.5355339 C12.4644661,18.6401034 11.5690356,19.5355339 10.4644661,19.5355339 L6.46446609,19.5355339 C5.35989659,19.5355339 4.46446609,18.6401034 4.46446609,17.5355339 L4.46446609,13.5355339 C4.46446609,12.4309644 5.35989659,11.5355339 6.46446609,11.5355339 L10.4644661,11.5355339 C11.5690356,11.5355339 12.4644661,12.4309644 12.4644661,13.5355339 L12.4644661,14.5355339 Z" fill="currentColor" opacity="0.3" transform="translate(8.464466, 15.535534) rotate(-45.000000) translate(-8.464466, -15.535534) "/>
        <path d="M11.5355339,9.46446609 L14.5355339,9.46446609 C15.0878187,9.46446609 15.5355339,9.01675084 15.5355339,8.46446609 C15.5355339,7.91218134 15.0878187,7.46446609 14.5355339,7.46446609 L11.5355339,7.46446609 L11.5355339,6.46446609 C11.5355339,5.35989659 12.4309644,4.46446609 13.5355339,4.46446609 L17.5355339,4.46446609 C18.6401034,4.46446609 19.5355339,5.35989659 19.5355339,6.46446609 L19.5355339,10.4644661 C19.5355339,11.5690356 18.6401034,12.4644661 17.5355339,12.4644661 L13.5355339,12.4644661 C12.4309644,12.4644661 11.5355339,11.5690356 11.5355339,10.4644661 L11.5355339,9.46446609 Z" fill="currentColor" transform="translate(15.535534, 8.464466) rotate(-45.000000) translate(-15.535534, -8.464466) "/>
    </g>
    <g id="icon-plus-circle" stroke="none" stroke-width="1" fill="none">
        <rect x="0" y="0" width="24" height="24"/>
        <circle fill="currentColor" opacity="0.3" cx="12" cy="12" r="10"/>
        <path d="M11,11 L11,7 C11,6.44771525 11.4477153,6 12,6 C12.5522847,6 13,6.44771525 13,7 L13,11 L17,11 C17.5522847,11 18,11.4477153 18,12 C18,12.5522847 17.5522847,13 17,13 L13,13 L13,17 C13,17.5522847 12.5522847,18 12,18 C11.4477153,18 11,17.5522847 11,17 L11,13 L7,13 C6.44771525,13 6,12.5522847 6,12 C6,11.4477153 6.44771525,11 7,11 L11,11 Z" fill="currentColor"/>
    </g>
    <g id="icon-plus-box" stroke="none" stroke-width="1" fill="none">
        <rect x="0" y="0" width="24" height="24"/>
        <rect fill="currentColor" opacity="0.3" width="24" height="24" rx="5"/>
        <path d="M11,11 L11,7 C11,6.44771525 11.4477153,6 12,6 C12.5522847,6 13,6.44771525 13,7 L13,11 L17,11 C17.5522847,11 18,11.4477153 18,12 C18,12.5522847 17.5522847,13 17,13 L13,13 L13,17 C13,17.5522847 12.5522847,18 12,18 C11.4477153,18 11,17.5522847 11,17 L11,13 L7,13 C6.44771525,13 6,12.5522847 6,12 C6,11.4477153 6.44771525,11 7,11 L11,11 Z" fill="currentColor"/>
    </g>
    <g id="icon-others" stroke="none" stroke-width="1" fill="none">
        <rect x="0" y="0" width="24" height="24"/>
        <circle fill="currentColor" cx="5" cy="12" r="2"/>
        <circle fill="currentColor" cx="12" cy="12" r="2"/>
        <circle fill="currentColor" cx="19" cy="12" r="2"/>
    </g>
    <g id="icon-others-2" stroke="none" stroke-width="1" fill="none">
        <rect x="0" y="0" width="24" height="24"/>
        <circle fill="currentColor" cx="12" cy="5" r="2"/>
        <circle fill="currentColor" cx="12" cy="12" r="2"/>
        <circle fill="currentColor" cx="12" cy="19" r="2"/>
    </g>
    <g id="icon-angle-down" stroke="none" stroke-width="1" fill="none">
        <polygon points="0 0 24 0 24 24 0 24"/>
        <path d="M6.70710678,15.7071068 C6.31658249,16.0976311 5.68341751,16.0976311 5.29289322,15.7071068 C4.90236893,15.3165825 4.90236893,14.6834175 5.29289322,14.2928932 L11.2928932,8.29289322 C11.6714722,7.91431428 12.2810586,7.90106866 12.6757246,8.26284586 L18.6757246,13.7628459 C19.0828436,14.1360383 19.1103465,14.7686056 18.7371541,15.1757246 C18.3639617,15.5828436 17.7313944,15.6103465 17.3242754,15.2371541 L12.0300757,10.3841378 L6.70710678,15.7071068 Z" fill="currentColor" fill-rule="nonzero" transform="translate(12.000003, 11.999999) rotate(-180.000000) translate(-12.000003, -11.999999) "/>
    </g>
    <g id="icon-angle-down-double" stroke="none" stroke-width="1" fill="none">
        <polygon points="0 0 24 0 24 24 0 24"/>
        <path d="M8.2928955,3.20710089 C7.90237121,2.8165766 7.90237121,2.18341162 8.2928955,1.79288733 C8.6834198,1.40236304 9.31658478,1.40236304 9.70710907,1.79288733 L15.7071091,7.79288733 C16.085688,8.17146626 16.0989336,8.7810527 15.7371564,9.17571874 L10.2371564,15.1757187 C9.86396402,15.5828377 9.23139665,15.6103407 8.82427766,15.2371482 C8.41715867,14.8639558 8.38965574,14.2313885 8.76284815,13.8242695 L13.6158645,8.53006986 L8.2928955,3.20710089 Z" fill="currentColor" fill-rule="nonzero" transform="translate(12.000003, 8.499997) scale(-1, -1) rotate(-90.000000) translate(-12.000003, -8.499997) "/>
        <path d="M6.70710678,19.2071045 C6.31658249,19.5976288 5.68341751,19.5976288 5.29289322,19.2071045 C4.90236893,18.8165802 4.90236893,18.1834152 5.29289322,17.7928909 L11.2928932,11.7928909 C11.6714722,11.414312 12.2810586,11.4010664 12.6757246,11.7628436 L18.6757246,17.2628436 C19.0828436,17.636036 19.1103465,18.2686034 18.7371541,18.6757223 C18.3639617,19.0828413 17.7313944,19.1103443 17.3242754,18.7371519 L12.0300757,13.8841355 L6.70710678,19.2071045 Z" fill="currentColor" fill-rule="nonzero" opacity="0.3" transform="translate(12.000003, 15.499997) scale(-1, -1) rotate(-360.000000) translate(-12.000003, -15.499997) "/>
    </g>
    <g id="icon-angle-double-v" stroke="none" stroke-width="1" fill="none">
        <polygon points="0 0 24 0 24 24 0 24"/>
        <path d="M6.70710678,8.70710678 C6.31658249,9.09763107 5.68341751,9.09763107 5.29289322,8.70710678 C4.90236893,8.31658249 4.90236893,7.68341751 5.29289322,7.29289322 L11.2928932,1.29289322 C11.6714722,0.914314282 12.2810586,0.90106866 12.6757246,1.26284586 L18.6757246,6.76284586 C19.0828436,7.13603827 19.1103465,7.76860564 18.7371541,8.17572463 C18.3639617,8.58284362 17.7313944,8.61034655 17.3242754,8.23715414 L12.0300757,3.38413782 L6.70710678,8.70710678 Z" fill="currentColor" fill-rule="nonzero"/>
        <path d="M6.70710678,22.7071068 C6.31658249,23.0976311 5.68341751,23.0976311 5.29289322,22.7071068 C4.90236893,22.3165825 4.90236893,21.6834175 5.29289322,21.2928932 L11.2928932,15.2928932 C11.6714722,14.9143143 12.2810586,14.9010687 12.6757246,15.2628459 L18.6757246,20.7628459 C19.0828436,21.1360383 19.1103465,21.7686056 18.7371541,22.1757246 C18.3639617,22.5828436 17.7313944,22.6103465 17.3242754,22.2371541 L12.0300757,17.3841378 L6.70710678,22.7071068 Z" fill="currentColor" fill-rule="nonzero" transform="translate(12.000003, 18.999999) rotate(-180.000000) translate(-12.000003, -18.999999) "/>
    </g>
    <g id="icon-user" stroke="none" stroke-width="1" fill="none" fill-rule="evenodd">
        <polygon points="0 0 24 0 24 24 0 24"/>
        <path d="M12,11 C9.790861,11 8,9.209139 8,7 C8,4.790861 9.790861,3 12,3 C14.209139,3 16,4.790861 16,7 C16,9.209139 14.209139,11 12,11 Z" fill="currentColor" fill-rule="nonzero" opacity="0.3"/>
        <path d="M3.00065168,20.1992055 C3.38825852,15.4265159 7.26191235,13 11.9833413,13 C16.7712164,13 20.7048837,15.2931929 20.9979143,20.2 C21.0095879,20.3954741 20.9979143,21 20.2466999,21 C16.541124,21 11.0347247,21 3.72750223,21 C3.47671215,21 2.97953825,20.45918 3.00065168,20.1992055 Z" fill="currentColor" fill-rule="nonzero"/>
    </g>
    <g id="icon-logout" stroke="none" stroke-width="1" fill="none" fill-rule="evenodd">
        <rect opacity="0.300000012" x="0" y="0" width="24" height="24"/>
        <polygon fill="currentColor" fill-rule="nonzero" opacity="0.3" points="7 4.89473684 7 21 5 21 5 3 11 3 11 4.89473684"/>
        <path d="M10.1782982,2.24743315 L18.1782982,3.6970464 C18.6540619,3.78325557 19,4.19751166 19,4.68102291 L19,19.3190064 C19,19.8025177 18.6540619,20.2167738 18.1782982,20.3029829 L10.1782982,21.7525962 C9.63486295,21.8510675 9.11449486,21.4903531 9.0160235,20.9469179 C9.00536265,20.8880837 9,20.8284119 9,20.7686197 L9,3.23140966 C9,2.67912491 9.44771525,2.23140966 10,2.23140966 C10.0597922,2.23140966 10.119464,2.2367723 10.1782982,2.24743315 Z M11.9166667,12.9060229 C12.6070226,12.9060229 13.1666667,12.2975724 13.1666667,11.5470105 C13.1666667,10.7964487 12.6070226,10.1879981 11.9166667,10.1879981 C11.2263107,10.1879981 10.6666667,10.7964487 10.6666667,11.5470105 C10.6666667,12.2975724 11.2263107,12.9060229 11.9166667,12.9060229 Z" fill="currentColor"/>
    </g>
    <g id="icon-toggle" stroke="none" stroke-width="1" fill="none" fill-rule="evenodd">
        <rect x="0" y="0" width="24" height="24"/>
        <rect fill="currentColor" x="4" y="4" width="7" height="7" rx="1.5"/>
        <path d="M5.5,13 L9.5,13 C10.3284271,13 11,13.6715729 11,14.5 L11,18.5 C11,19.3284271 10.3284271,20 9.5,20 L5.5,20 C4.67157288,20 4,19.3284271 4,18.5 L4,14.5 C4,13.6715729 4.67157288,13 5.5,13 Z M14.5,4 L18.5,4 C19.3284271,4 20,4.67157288 20,5.5 L20,9.5 C20,10.3284271 19.3284271,11 18.5,11 L14.5,11 C13.6715729,11 13,10.3284271 13,9.5 L13,5.5 C13,4.67157288 13.6715729,4 14.5,4 Z M14.5,13 L18.5,13 C19.3284271,13 20,13.6715729 20,14.5 L20,18.5 C20,19.3284271 19.3284271,20 18.5,20 L14.5,20 C13.6715729,20 13,19.3284271 13,18.5 L13,14.5 C13,13.6715729 13.6715729,13 14.5,13 Z" fill="currentColor" opacity="0.3"/>
    </g>
    <g id="icon-forgot-password" stroke="none" stroke-width="1" fill="none" fill-rule="evenodd">
        <rect x="0" y="0" width="24" height="24"/>
        <path d="M7.38979581,2.8349582 C8.65216735,2.29743306 10.0413491,2 11.5,2 C17.2989899,2 22,6.70101013 22,12.5 C22,18.2989899 17.2989899,23 11.5,23 C5.70101013,23 1,18.2989899 1,12.5 C1,11.5151324 1.13559454,10.5619345 1.38913364,9.65805651 L3.31481075,10.1982117 C3.10672013,10.940064 3,11.7119264 3,12.5 C3,17.1944204 6.80557963,21 11.5,21 C16.1944204,21 20,17.1944204 20,12.5 C20,7.80557963 16.1944204,4 11.5,4 C10.54876,4 9.62236069,4.15592757 8.74872191,4.45446326 L9.93948308,5.87355717 C10.0088058,5.95617272 10.0495583,6.05898805 10.05566,6.16666224 C10.0712834,6.4423623 9.86044965,6.67852665 9.5847496,6.69415008 L4.71777931,6.96995273 C4.66931162,6.97269931 4.62070229,6.96837279 4.57348157,6.95710938 C4.30487471,6.89303938 4.13906482,6.62335149 4.20313482,6.35474463 L5.33163823,1.62361064 C5.35654118,1.51920756 5.41437908,1.4255891 5.49660017,1.35659741 C5.7081375,1.17909652 6.0235153,1.2066885 6.2010162,1.41822583 L7.38979581,2.8349582 Z" fill="currentColor" opacity="0.3"/>
        <path d="M14.5,11 C15.0522847,11 15.5,11.4477153 15.5,12 L15.5,15 C15.5,15.5522847 15.0522847,16 14.5,16 L9.5,16 C8.94771525,16 8.5,15.5522847 8.5,15 L8.5,12 C8.5,11.4477153 8.94771525,11 9.5,11 L9.5,10.5 C9.5,9.11928813 10.6192881,8 12,8 C13.3807119,8 14.5,9.11928813 14.5,10.5 L14.5,11 Z M12,9 C11.1715729,9 10.5,9.67157288 10.5,10.5 L10.5,11 L13.5,11 L13.5,10.5 C13.5,9.67157288 12.8284271,9 12,9 Z" fill="currentColor"/>
    </g>
    <g id="icon-duplicate" stroke="none" stroke-width="1" fill="none" fill-rule="evenodd">
        <rect x="0" y="0" width="24" height="24"/>
        <path d="M15.9956071,6 L9,6 C7.34314575,6 6,7.34314575 6,9 L6,15.9956071 C4.70185442,15.9316381 4,15.1706419 4,13.8181818 L4,6.18181818 C4,4.76751186 4.76751186,4 6.18181818,4 L13.8181818,4 C15.1706419,4 15.9316381,4.70185442 15.9956071,6 Z" fill="currentColor" fill-rule="nonzero" opacity="0.3"/>
        <path d="M10.1818182,8 L17.8181818,8 C19.2324881,8 20,8.76751186 20,10.1818182 L20,17.8181818 C20,19.2324881 19.2324881,20 17.8181818,20 L10.1818182,20 C8.76751186,20 8,19.2324881 8,17.8181818 L8,10.1818182 C8,8.76751186 8.76751186,8 10.1818182,8 Z" fill="currentColor"/>
    </g>
    <g id="icon-user-add" stroke="none" stroke-width="1" fill="none" fill-rule="evenodd">
        <polygon points="0 0 24 0 24 24 0 24"/>
        <path d="M18,8 L16,8 C15.4477153,8 15,7.55228475 15,7 C15,6.44771525 15.4477153,6 16,6 L18,6 L18,4 C18,3.44771525 18.4477153,3 19,3 C19.5522847,3 20,3.44771525 20,4 L20,6 L22,6 C22.5522847,6 23,6.44771525 23,7 C23,7.55228475 22.5522847,8 22,8 L20,8 L20,10 C20,10.5522847 19.5522847,11 19,11 C18.4477153,11 18,10.5522847 18,10 L18,8 Z M9,11 C6.790861,11 5,9.209139 5,7 C5,4.790861 6.790861,3 9,3 C11.209139,3 13,4.790861 13,7 C13,9.209139 11.209139,11 9,11 Z" fill="currentColor" fill-rule="nonzero" opacity="0.3"/>
        <path d="M0.00065168429,20.1992055 C0.388258525,15.4265159 4.26191235,13 8.98334134,13 C13.7712164,13 17.7048837,15.2931929 17.9979143,20.2 C18.0095879,20.3954741 17.9979143,21 17.2466999,21 C13.541124,21 8.03472472,21 0.727502227,21 C0.476712155,21 -0.0204617505,20.45918 0.00065168429,20.1992055 Z" fill="currentColor" fill-rule="nonzero"/>
    </g>
    <g id="icon-arrow-right" stroke="none" stroke-width="1" fill="none" fill-rule="evenodd">
        <polygon points="0 0 24 0 24 24 0 24"/>
        <rect fill="currentColor" opacity="0.3" transform="translate(12.000000, 12.000000) rotate(-90.000000) translate(-12.000000, -12.000000) " x="11" y="5" width="2" height="14" rx="1"/>
        <path d="M9.70710318,15.7071045 C9.31657888,16.0976288 8.68341391,16.0976288 8.29288961,15.7071045 C7.90236532,15.3165802 7.90236532,14.6834152 8.29288961,14.2928909 L14.2928896,8.29289093 C14.6714686,7.914312 15.281055,7.90106637 15.675721,8.26284357 L21.675721,13.7628436 C22.08284,14.136036 22.1103429,14.7686034 21.7371505,15.1757223 C21.3639581,15.5828413 20.7313908,15.6103443 20.3242718,15.2371519 L15.0300721,10.3841355 L9.70710318,15.7071045 Z" fill="currentColor" fill-rule="nonzero" transform="translate(14.999999, 11.999997) scale(1, -1) rotate(90.000000) translate(-14.999999, -11.999997) "/>
    </g>
    <g id="icon-close" stroke="none" stroke-width="1" fill="none" fill-rule="evenodd">
        <g transform="translate(12.000000, 12.000000) rotate(-45.000000) translate(-12.000000, -12.000000) translate(4.000000, 4.000000)" fill="currentColor">
            <rect x="0" y="7" width="16" height="2" rx="1"/>
            <rect opacity="0.3" transform="translate(8.000000, 8.000000) rotate(-270.000000) translate(-8.000000, -8.000000) " x="0" y="7" width="16" height="2" rx="1"/>
        </g>
    </g>
    <g id="icon-arrow-left" stroke="none" stroke-width="1" fill="none" fill-rule="evenodd">
        <polygon points="0 0 24 0 24 24 0 24"/>
        <rect fill="currentColor" opacity="0.3" transform="translate(12.000000, 12.000000) scale(-1, 1) rotate(-90.000000) translate(-12.000000, -12.000000) " x="11" y="5" width="2" height="14" rx="1"/>
        <path d="M3.7071045,15.7071045 C3.3165802,16.0976288 2.68341522,16.0976288 2.29289093,15.7071045 C1.90236664,15.3165802 1.90236664,14.6834152 2.29289093,14.2928909 L8.29289093,8.29289093 C8.67146987,7.914312 9.28105631,7.90106637 9.67572234,8.26284357 L15.6757223,13.7628436 C16.0828413,14.136036 16.1103443,14.7686034 15.7371519,15.1757223 C15.3639594,15.5828413 14.7313921,15.6103443 14.3242731,15.2371519 L9.03007346,10.3841355 L3.7071045,15.7071045 Z" fill="currentColor" fill-rule="nonzero" transform="translate(9.000001, 11.999997) scale(-1, -1) rotate(90.000000) translate(-9.000001, -11.999997) "/>
    </g>
    <g id="icon-group-chat" stroke="none" stroke-width="1" fill="none" fill-rule="evenodd">
        <rect x="0" y="0" width="24" height="24"/>
        <path d="M16,15.6315789 L16,12 C16,10.3431458 14.6568542,9 13,9 L6.16183229,9 L6.16183229,5.52631579 C6.16183229,4.13107011 7.29290239,3 8.68814808,3 L20.4776218,3 C21.8728674,3 23.0039375,4.13107011 23.0039375,5.52631579 L23.0039375,13.1052632 L23.0206157,17.786793 C23.0215995,18.0629336 22.7985408,18.2875874 22.5224001,18.2885711 C22.3891754,18.2890457 22.2612702,18.2363324 22.1670655,18.1421277 L19.6565168,15.6315789 L16,15.6315789 Z" fill="currentColor"/>
        <path d="M1.98505595,18 L1.98505595,13 C1.98505595,11.8954305 2.88048645,11 3.98505595,11 L11.9850559,11 C13.0896254,11 13.9850559,11.8954305 13.9850559,13 L13.9850559,18 C13.9850559,19.1045695 13.0896254,20 11.9850559,20 L4.10078614,20 L2.85693427,21.1905292 C2.65744295,21.3814685 2.34093638,21.3745358 2.14999706,21.1750444 C2.06092565,21.0819836 2.01120804,20.958136 2.01120804,20.8293182 L2.01120804,18.32426 C1.99400175,18.2187196 1.98505595,18.1104045 1.98505595,18 Z M6.5,14 C6.22385763,14 6,14.2238576 6,14.5 C6,14.7761424 6.22385763,15 6.5,15 L11.5,15 C11.7761424,15 12,14.7761424 12,14.5 C12,14.2238576 11.7761424,14 11.5,14 L6.5,14 Z M9.5,16 C9.22385763,16 9,16.2238576 9,16.5 C9,16.7761424 9.22385763,17 9.5,17 L11.5,17 C11.7761424,17 12,16.7761424 12,16.5 C12,16.2238576 11.7761424,16 11.5,16 L9.5,16 Z" fill="currentColor" opacity="0.3"/>
    </g>
    <g id="icon-video" stroke="none" stroke-width="1" fill="none" fill-rule="evenodd">
        <rect x="0" y="0" width="24" height="24"/>
        <rect fill="currentColor" x="2" y="6" width="13" height="12" rx="2"/>
        <path d="M22,8.4142119 L22,15.5857848 C22,16.1380695 21.5522847,16.5857848 21,16.5857848 C20.7347833,16.5857848 20.4804293,16.4804278 20.2928929,16.2928912 L16.7071064,12.7071013 C16.3165823,12.3165768 16.3165826,11.6834118 16.7071071,11.2928877 L20.2928936,7.70710477 C20.683418,7.31658067 21.316583,7.31658098 21.7071071,7.70710546 C21.8946433,7.89464181 22,8.14899558 22,8.4142119 Z" fill="currentColor" opacity="0.3"/>
    </g>
    <g id="icon-group" stroke="none" stroke-width="1" fill="none" fill-rule="evenodd">
        <polygon points="0 0 24 0 24 24 0 24"/>
        <path d="M18,14 C16.3431458,14 15,12.6568542 15,11 C15,9.34314575 16.3431458,8 18,8 C19.6568542,8 21,9.34314575 21,11 C21,12.6568542 19.6568542,14 18,14 Z M9,11 C6.790861,11 5,9.209139 5,7 C5,4.790861 6.790861,3 9,3 C11.209139,3 13,4.790861 13,7 C13,9.209139 11.209139,11 9,11 Z" fill="currentColor" fill-rule="nonzero" opacity="0.3"/>
        <path d="M17.6011961,15.0006174 C21.0077043,15.0378534 23.7891749,16.7601418 23.9984937,20.4 C24.0069246,20.5466056 23.9984937,21 23.4559499,21 L19.6,21 C19.6,18.7490654 18.8562935,16.6718327 17.6011961,15.0006174 Z M0.00065168429,20.1992055 C0.388258525,15.4265159 4.26191235,13 8.98334134,13 C13.7712164,13 17.7048837,15.2931929 17.9979143,20.2 C18.0095879,20.3954741 17.9979143,21 17.2466999,21 C13.541124,21 8.03472472,21 0.727502227,21 C0.476712155,21 -0.0204617505,20.45918 0.00065168429,20.1992055 Z" fill="currentColor" fill-rule="nonzero"/>
    </g>
    <g id="icon-chat" stroke="none" stroke-width="1" fill="none" fill-rule="evenodd">
        <rect x="0" y="0" width="24" height="24"/>
        <path opacity="0.3" fill-rule="evenodd" clip-rule="evenodd" d="M14.4862 18L12.7975 21.0566C12.5304 21.54 11.922 21.7153 11.4386 21.4483C11.2977 21.3704 11.1777 21.2597 11.0887 21.1255L9.01653 18H5C3.34315 18 2 16.6569 2 15V6C2 4.34315 3.34315 3 5 3H19C20.6569 3 22 4.34315 22 6V15C22 16.6569 20.6569 18 19 18H14.4862Z" fill="currentColor"/>
        <path fill-rule="evenodd" clip-rule="evenodd" d="M6 7H15C15.5523 7 16 7.44772 16 8C16 8.55228 15.5523 9 15 9H6C5.44772 9 5 8.55228 5 8C5 7.44772 5.44772 7 6 7ZM6 11H11C11.5523 11 12 11.4477 12 12C12 12.5523 11.5523 13 11 13H6C5.44772 13 5 12.5523 5 12C5 11.4477 5.44772 11 6 11Z" fill="currentColor"/>
    </g>
    <g id="icon-phone" stroke="none" stroke-width="1" fill="none" fill-rule="evenodd">
        <rect x="0" y="0" width="24" height="24"/>
        <path d="M9.8604543,6.01162174 C9.94073619,5.93133984 10.0459506,5.88077119 10.1587919,5.86823326 C10.4332453,5.83773844 10.6804547,6.03550595 10.7109496,6.30995936 L11.2341533,11.0187935 C11.2382309,11.0554911 11.2382309,11.0925274 11.2341533,11.129225 C11.2036585,11.4036784 10.9564491,11.6014459 10.6819957,11.5709511 L5.97316161,11.0477473 C5.86032028,11.0352094 5.75510588,10.9846407 5.67482399,10.9043588 C5.47956184,10.7090967 5.47956184,10.3925142 5.67482399,10.197252 L7.06053236,8.81154367 L5.55907018,7.31008149 C5.36380803,7.11481935 5.36380803,6.79823686 5.55907018,6.60297471 L6.26617696,5.89586793 C6.46143911,5.70060578 6.7780216,5.70060578 6.97328374,5.89586793 L8.47474592,7.39733011 L9.8604543,6.01162174 Z" fill="currentColor" fill-rule="nonzero" opacity="0.3"/>
        <path d="M12.0799676,14.7839934 L14.2839934,12.5799676 C14.8927139,11.9712471 15.0436229,11.0413042 14.6586342,10.2713269 L14.5337539,10.0215663 C14.1487653,9.25158901 14.2996742,8.3216461 14.9083948,7.71292558 L17.6411989,4.98012149 C17.836461,4.78485934 18.1530435,4.78485934 18.3483056,4.98012149 C18.3863063,5.01812215 18.4179321,5.06200062 18.4419658,5.11006808 L19.5459415,7.31801948 C20.3904962,9.0071287 20.0594452,11.0471565 18.7240871,12.3825146 L12.7252616,18.3813401 C11.2717221,19.8348796 9.12170075,20.3424308 7.17157288,19.6923882 L4.75709327,18.8875616 C4.49512161,18.8002377 4.35354162,18.5170777 4.4408655,18.2551061 C4.46541191,18.1814669 4.50676633,18.114554 4.56165376,18.0596666 L7.21292558,15.4083948 C7.8216461,14.7996742 8.75158901,14.6487653 9.52156634,15.0337539 L9.77132688,15.1586342 C10.5413042,15.5436229 11.4712471,15.3927139 12.0799676,14.7839934 Z" fill="currentColor"/>
    </g>
    <g id="icon-mailbox" stroke="none" stroke-width="1" fill="none" fill-rule="evenodd">
        <rect x="0" y="0" width="24" height="24"/>
        <path d="M22,15 L22,19 C22,20.1045695 21.1045695,21 20,21 L4,21 C2.8954305,21 2,20.1045695 2,19 L2,15 L6.27924078,15 L6.82339262,16.6324555 C7.09562072,17.4491398 7.8598984,18 8.72075922,18 L15.381966,18 C16.1395101,18 16.8320364,17.5719952 17.1708204,16.8944272 L18.118034,15 L22,15 Z" fill="currentColor"/>
        <path d="M2.5625,13 L5.92654389,7.01947752 C6.2807805,6.38972356 6.94714834,6 7.66969497,6 L16.330305,6 C17.0528517,6 17.7192195,6.38972356 18.0734561,7.01947752 L21.4375,13 L18.118034,13 C17.3604899,13 16.6679636,13.4280048 16.3291796,14.1055728 L15.381966,16 L8.72075922,16 L8.17660738,14.3675445 C7.90437928,13.5508602 7.1401016,13 6.27924078,13 L2.5625,13 Z" fill="currentColor" opacity="0.3"/>
    </g>
    <g id="icon-clipboard" stroke="none" stroke-width="1" fill="none" fill-rule="evenodd">
        <rect x="0" y="0" width="24" height="24"/>
        <path d="M8,3 L8,3.5 C8,4.32842712 8.67157288,5 9.5,5 L14.5,5 C15.3284271,5 16,4.32842712 16,3.5 L16,3 L18,3 C19.1045695,3 20,3.8954305 20,5 L20,21 C20,22.1045695 19.1045695,23 18,23 L6,23 C4.8954305,23 4,22.1045695 4,21 L4,5 C4,3.8954305 4.8954305,3 6,3 L8,3 Z" fill="currentColor" opacity="0.3"/>
        <path d="M11,2 C11,1.44771525 11.4477153,1 12,1 C12.5522847,1 13,1.44771525 13,2 L14.5,2 C14.7761424,2 15,2.22385763 15,2.5 L15,3.5 C15,3.77614237 14.7761424,4 14.5,4 L9.5,4 C9.22385763,4 9,3.77614237 9,3.5 L9,2.5 C9,2.22385763 9.22385763,2 9.5,2 L11,2 Z" fill="currentColor"/>
        <rect fill="currentColor" opacity="0.3" x="10" y="9" width="7" height="2" rx="1"/>
        <rect fill="currentColor" opacity="0.3" x="7" y="9" width="2" height="2" rx="1"/>
        <rect fill="currentColor" opacity="0.3" x="7" y="13" width="2" height="2" rx="1"/>
        <rect fill="currentColor" opacity="0.3" x="10" y="13" width="7" height="2" rx="1"/>
        <rect fill="currentColor" opacity="0.3" x="7" y="17" width="2" height="2" rx="1"/>
        <rect fill="currentColor" opacity="0.3" x="10" y="17" width="7" height="2" rx="1"/>
    </g>
</svg>
